<svg xmlns="http://www.w3.org/2000/svg" xmlns:xlink="http://www.w3.org/1999/xlink" width="2000" zoomAndPan="magnify" viewBox="0 0 1500 1499.999933" height="2000" preserveAspectRatio="xMidYMid meet" version="1.0"><defs><clipPath id="61c84f93a6"><path d="M 410.15625 129.28125 L 1089.65625 129.28125 L 1089.65625 1370.53125 L 410.15625 1370.53125 Z M 410.15625 129.28125 " clip-rule="nonzero"/></clipPath></defs><g clip-path="url(#61c84f93a6)"><path fill="#417ae0" d="M 709.074219 130.910156 C 706.085938 131.390625 701.179688 131.507812 698.1875 131.152344 C 693.28125 130.550781 692.445312 130.910156 690.292969 133.664062 C 688.855469 135.339844 687.300781 136.773438 686.703125 136.773438 C 685.027344 136.773438 671.03125 145.984375 665.527344 150.652344 C 655.714844 159.027344 648.058594 171.707031 643.992188 186.542969 C 642.914062 190.492188 641.121094 195.636719 640.042969 198.148438 C 638.25 202.335938 638.25 203.175781 639.921875 208.320312 C 641 211.429688 641.835938 215.617188 641.71875 217.648438 C 641.71875 219.804688 643.152344 224.46875 644.949219 228.179688 C 646.863281 232.125 647.941406 235.835938 647.460938 237.152344 C 646.863281 239.1875 649.136719 251.507812 651.050781 256.535156 C 651.527344 257.730469 650.8125 258.804688 648.898438 259.644531 C 646.503906 260.722656 645.546875 262.753906 643.871094 269.695312 C 642.675781 274.480469 640.523438 280.582031 638.964844 283.214844 C 635.617188 289.074219 635.496094 290.152344 638.007812 295.296875 C 640.28125 300.203125 638.726562 303.910156 632.507812 308.097656 C 622.933594 314.558594 589.195312 362.535156 577.113281 386.820312 C 561.441406 418.285156 559.765625 435.035156 553.542969 609.949219 C 552.824219 628.375 551.988281 645.363281 551.75 647.636719 C 551.390625 649.910156 550.550781 666.898438 549.953125 685.324219 C 549.355469 703.75 548.039062 726.839844 547.082031 736.769531 C 545.289062 755.671875 544.570312 837.386719 546.246094 840.136719 C 547.5625 842.292969 564.070312 845.28125 572.6875 844.921875 C 581.417969 844.445312 583.453125 845.28125 583.453125 848.871094 C 583.453125 850.1875 580.820312 859.519531 577.589844 869.449219 C 569.574219 894.335938 562.15625 923.765625 560.242188 939.082031 C 558.6875 950.445312 558.089844 952.242188 554.980469 955.589844 C 553.066406 957.625 550.3125 961.453125 548.996094 964.085938 C 546.246094 969.707031 541.101562 987.296875 539.304688 997.585938 C 538.230469 1003.445312 537.03125 1005.601562 532.726562 1010.148438 C 529.855469 1013.136719 526.144531 1018.042969 524.351562 1021.035156 C 520.285156 1028.210938 515.257812 1041.015625 515.257812 1044.246094 C 515.257812 1045.679688 513.941406 1048.074219 512.265625 1049.628906 C 510.59375 1051.304688 509.277344 1053.816406 509.277344 1055.609375 C 509.277344 1057.285156 507.960938 1060.515625 506.40625 1062.667969 C 504.730469 1064.941406 503.054688 1068.410156 502.578125 1070.445312 C 502.21875 1072.480469 501.378906 1074.632812 500.902344 1075.351562 C 500.304688 1075.949219 498.867188 1079.179688 497.550781 1082.527344 C 496.355469 1085.757812 490.375 1100.234375 484.390625 1114.472656 C 466.804688 1156.585938 456.875 1186.136719 448.378906 1221.910156 C 446.464844 1230.164062 442.996094 1241.652344 440.722656 1247.632812 C 438.328125 1253.496094 436.175781 1261.03125 435.699219 1264.382812 C 435.21875 1267.613281 433.664062 1272.519531 432.109375 1275.148438 C 429.597656 1279.695312 422.777344 1299.199219 422.417969 1303.386719 C 421.9375 1308.648438 419.066406 1318.578125 417.152344 1321.210938 C 409.976562 1331.5 408.179688 1339.753906 412.367188 1343.941406 C 422.65625 1354.230469 454.003906 1360.933594 527.460938 1368.46875 C 560.484375 1371.820312 602.714844 1370.261719 615.515625 1365.117188 C 621.617188 1362.726562 622.574219 1361.890625 624.011719 1357.582031 C 624.96875 1354.828125 625.328125 1351.957031 624.96875 1351 C 620.183594 1341.3125 615.039062 1337.363281 605.347656 1336.285156 C 587.519531 1334.371094 579.863281 1332.695312 572.445312 1329.226562 C 567.898438 1327.191406 564.3125 1325.160156 564.3125 1324.679688 C 564.3125 1323.605469 559.167969 1318.339844 551.152344 1311.28125 C 542.65625 1303.863281 543.132812 1304.34375 540.023438 1300.753906 C 538.589844 1299.078125 536.675781 1295.367188 535.71875 1292.378906 C 534.402344 1287.953125 531.53125 1280.054688 528.777344 1273.59375 C 528.300781 1272.398438 528.777344 1272.398438 531.289062 1273.476562 C 534.042969 1274.789062 534.878906 1274.671875 537.75 1272.519531 C 544.449219 1267.613281 545.289062 1261.03125 542.175781 1241.652344 C 541.21875 1235.667969 540.382812 1225.378906 540.382812 1218.558594 L 540.382812 1206.355469 L 549.238281 1191.042969 C 562.277344 1168.671875 572.925781 1147.375 577.351562 1134.8125 C 579.625 1128.710938 582.855469 1121.652344 584.53125 1119.140625 C 600.441406 1096.40625 601.519531 1095.089844 610.132812 1090.066406 C 622.21875 1083.007812 628.917969 1076.1875 637.050781 1062.90625 C 646.382812 1047.714844 648.179688 1044.003906 655.835938 1024.742188 C 668.875 991.722656 684.191406 956.667969 688.496094 950.566406 C 689.8125 948.652344 708.117188 977.484375 727.621094 1011.941406 C 741.976562 1037.304688 745.925781 1043.527344 751.546875 1049.628906 C 753.703125 1051.902344 755.855469 1055.371094 756.214844 1057.40625 C 756.691406 1059.320312 757.53125 1063.027344 758.007812 1065.539062 C 758.605469 1068.050781 760.160156 1071.28125 761.597656 1072.839844 C 762.914062 1074.273438 764.109375 1076.546875 764.109375 1077.984375 C 764.109375 1079.296875 765.425781 1082.410156 767.101562 1084.800781 C 768.777344 1087.195312 770.09375 1090.546875 770.09375 1092.101562 C 770.09375 1093.65625 771.40625 1096.527344 773.082031 1098.441406 C 774.757812 1100.476562 776.074219 1102.628906 776.074219 1103.464844 C 776.074219 1104.304688 776.792969 1106.335938 777.75 1108.011719 C 778.707031 1109.808594 780.5 1113.636719 781.816406 1116.625 C 786.003906 1126.199219 786.839844 1127.992188 787.917969 1129.785156 C 788.515625 1130.742188 790.070312 1133.972656 791.386719 1136.964844 C 792.703125 1139.957031 795.574219 1146.417969 797.847656 1151.320312 C 812.5625 1184.222656 828.597656 1213.535156 846.78125 1240.574219 C 853.601562 1250.863281 855.15625 1254.09375 856.351562 1260.671875 C 858.027344 1270.246094 861.257812 1275.390625 868.078125 1279.21875 C 872.382812 1281.492188 873.101562 1282.449219 872.382812 1284.601562 C 870.230469 1290.941406 870.351562 1295.96875 872.742188 1299.316406 C 874.898438 1302.425781 882.554688 1318.9375 882.554688 1320.613281 C 882.554688 1320.972656 884.707031 1325.878906 887.339844 1331.378906 C 889.972656 1337.003906 892.363281 1342.984375 892.605469 1344.78125 C 895.117188 1363.203125 895.953125 1365 903.371094 1366.675781 C 912.582031 1368.707031 928.496094 1364.402344 957.925781 1351.601562 C 967.5 1347.53125 983.648438 1340.832031 993.820312 1336.765625 C 1018.585938 1326.953125 1031.507812 1320.015625 1045.742188 1309.367188 C 1060.21875 1298.480469 1080.320312 1278.261719 1085.703125 1269.289062 L 1089.769531 1262.707031 L 1087.496094 1258.160156 C 1085.105469 1253.253906 1077.207031 1248.351562 1071.464844 1248.230469 C 1069.671875 1248.230469 1060.578125 1251.222656 1051.125 1254.929688 C 1030.308594 1263.1875 1018.226562 1265.101562 1012.722656 1261.03125 C 1010.570312 1259.355469 1008.65625 1258.878906 1006.5 1259.476562 C 1004.707031 1259.957031 997.289062 1259.597656 989.992188 1258.878906 L 976.710938 1257.5625 L 968.8125 1251.222656 C 964.507812 1247.753906 959.363281 1243.207031 957.449219 1241.171875 C 955.535156 1239.136719 952.183594 1237.105469 949.910156 1236.746094 C 947.757812 1236.386719 945.964844 1235.789062 945.964844 1235.546875 C 945.964844 1235.308594 947.277344 1233.15625 948.953125 1230.761719 C 951.226562 1227.53125 951.945312 1224.78125 951.945312 1220.234375 C 951.945312 1211.859375 948.835938 1205.640625 914.617188 1145.9375 C 881.238281 1087.554688 868.078125 1063.386719 864.488281 1054.175781 L 861.976562 1047.472656 L 866.28125 1040.414062 C 868.675781 1036.46875 870.949219 1031.324219 871.425781 1028.929688 C 872.265625 1023.308594 869.871094 1011.34375 866.882812 1006.917969 C 865.683594 1005.121094 864.128906 1002.730469 863.53125 1001.773438 C 862.933594 1000.816406 861.855469 996.269531 861.257812 991.722656 C 860.421875 986.339844 858.148438 979.636719 854.558594 972.222656 C 850.011719 962.890625 848.335938 960.617188 845.464844 959.539062 C 841.996094 958.222656 841.875 957.746094 842.472656 953.796875 C 843.074219 950.328125 842.714844 948.769531 840.203125 945.898438 C 838.167969 943.507812 837.089844 940.753906 837.089844 938.242188 C 837.089844 935.851562 836.015625 933.21875 834.457031 931.542969 C 833.023438 929.988281 830.871094 924.84375 829.671875 920.058594 C 827.039062 909.769531 814.835938 867.773438 812.683594 861.792969 C 811.605469 858.683594 811.488281 856.769531 812.445312 854.734375 C 813.523438 852.339844 813.28125 851.625 811.128906 850.1875 C 809.09375 848.753906 808.734375 847.675781 809.214844 843.964844 C 809.691406 840.378906 809.214844 838.464844 807.0625 835.589844 C 805.625 833.558594 804.667969 831.523438 805.148438 831.164062 C 805.984375 830.328125 822.734375 832.839844 827.398438 834.515625 C 829.195312 835.113281 830.75 834.992188 831.828125 834.15625 C 833.980469 832.480469 833.980469 824.34375 831.945312 817.40625 C 830.988281 814.175781 830.75 810.347656 831.226562 807.355469 C 833.382812 796.230469 832.425781 783.789062 828.117188 766.082031 C 824.527344 751.363281 823.929688 746.578125 823.929688 734.617188 L 823.929688 720.496094 L 827.28125 722.292969 C 829.074219 723.128906 833.980469 724.925781 838.285156 726.242188 C 842.714844 727.558594 848.695312 730.546875 851.925781 732.941406 C 855.035156 735.453125 858.984375 737.367188 860.539062 737.367188 C 862.214844 737.367188 866.761719 739.519531 870.589844 742.152344 C 877.886719 747.058594 881.117188 747.894531 883.390625 745.621094 C 886.503906 742.511719 905.046875 759.859375 907.796875 768.234375 C 908.515625 770.746094 909.710938 773.378906 910.429688 774.097656 C 911.984375 776.128906 916.652344 776.011719 918.445312 773.976562 C 919.523438 772.542969 920.480469 772.542969 922.632812 773.5 C 925.742188 774.933594 932.800781 772.898438 932.800781 770.628906 C 932.800781 769.910156 934.359375 769.789062 936.511719 770.269531 C 939.742188 770.984375 940.699219 770.507812 945.363281 765.601562 C 948.355469 762.371094 950.867188 760.578125 951.347656 761.296875 C 951.707031 761.894531 953.378906 762.492188 954.9375 762.492188 C 959.363281 762.492188 962.472656 755.3125 962.832031 744.90625 C 962.953125 740.359375 962.59375 735.8125 961.996094 734.855469 C 960.199219 731.863281 944.40625 713.199219 940.460938 709.371094 C 934.597656 703.75 925.742188 697.765625 920.359375 695.972656 C 917.488281 694.894531 914.976562 693.101562 914.257812 691.546875 C 913.539062 690.109375 910.308594 687 906.839844 684.726562 C 903.492188 682.453125 900.140625 679.339844 899.421875 677.90625 C 897.988281 674.675781 883.628906 663.667969 878.367188 661.875 C 875.972656 660.917969 873.699219 658.882812 872.265625 656.132812 C 869.273438 650.390625 862.574219 643.089844 858.507812 640.9375 C 856.59375 639.980469 852.40625 639.261719 849.175781 639.261719 C 843.3125 639.261719 843.074219 639.144531 840.558594 634.117188 C 837.089844 627.179688 830.269531 620.480469 825.246094 618.804688 C 818.546875 616.648438 817.949219 615.691406 817.949219 607.675781 C 817.949219 597.269531 815.195312 578.007812 810.890625 558.503906 C 808.976562 549.292969 803.710938 525.125 799.402344 504.90625 C 795.097656 484.566406 790.910156 466.621094 790.3125 464.828125 C 787.558594 457.527344 785.644531 446.042969 783.851562 425.226562 C 782.773438 413.140625 781.21875 401.417969 780.261719 399.382812 C 779.425781 397.109375 775.835938 393.28125 772.007812 390.53125 C 766.023438 386.105469 765.425781 385.148438 766.023438 382.273438 C 767.9375 374.738281 775.117188 354.636719 779.183594 346.023438 C 782.894531 338.246094 783.371094 336.332031 782.054688 334.777344 C 781.21875 333.820312 779.902344 332.984375 778.945312 332.984375 C 778.109375 332.984375 776.792969 331.90625 776.074219 330.589844 C 775.355469 329.273438 770.808594 326.285156 765.90625 324.011719 C 761 321.617188 756.933594 319.34375 756.933594 319.105469 C 756.933594 317.667969 777.988281 308.9375 783.011719 308.21875 C 790.550781 307.378906 793.660156 305.105469 795.335938 299.605469 C 796.53125 295.417969 796.414062 294.21875 794.378906 290.273438 C 792.105469 285.964844 792.105469 285.367188 793.78125 281.058594 C 795.214844 277.351562 795.335938 276.035156 794.140625 274.121094 C 792.945312 272.207031 793.0625 271.367188 794.5 269.695312 C 795.695312 268.378906 796.414062 265.386719 796.414062 261.558594 C 796.414062 255.21875 797.488281 254.140625 804.308594 254.019531 C 807.539062 254.019531 810.769531 250.433594 810.769531 246.722656 C 810.769531 245.046875 807.898438 240.382812 804.070312 235.476562 C 789.59375 217.292969 789.714844 216.335938 805.863281 215.378906 C 820.9375 214.300781 828.835938 211.90625 834.9375 206.402344 C 839.722656 202.097656 845.464844 192.046875 845.464844 187.980469 C 845.464844 185.585938 846.304688 185.824219 816.152344 182.117188 C 804.308594 180.679688 793.421875 179.007812 791.984375 178.527344 C 790.429688 177.929688 785.527344 171.707031 780.382812 163.8125 C 767.101562 143.710938 755.375 134.378906 739.226562 130.910156 C 732.167969 129.476562 717.210938 129.355469 709.074219 130.910156 Z M 709.074219 130.910156 " fill-opacity="1" fill-rule="nonzero"/></g></svg>