<svg xmlns="http://www.w3.org/2000/svg" xmlns:xlink="http://www.w3.org/1999/xlink" width="280" zoomAndPan="magnify" viewBox="0 0 210 74.999997" height="100" preserveAspectRatio="xMidYMid meet" version="1.0"><defs><g/></defs><g fill="#dfe2e8" fill-opacity="1"><g transform="translate(0.0184965, 69.55425)"><g><path d="M 21.125 -39.40625 C 23.3125 -39.40625 25.472656 -39.15625 27.609375 -38.65625 C 29.753906 -38.164062 31.347656 -37.671875 32.390625 -37.171875 L 33.96875 -36.421875 L 29.625 -27.765625 C 26.644531 -29.359375 23.8125 -30.15625 21.125 -30.15625 C 19.632812 -30.15625 18.578125 -29.992188 17.953125 -29.671875 C 17.328125 -29.347656 17.015625 -28.738281 17.015625 -27.84375 C 17.015625 -27.644531 17.039062 -27.441406 17.09375 -27.234375 C 17.144531 -27.035156 17.242188 -26.847656 17.390625 -26.671875 C 17.535156 -26.503906 17.671875 -26.359375 17.796875 -26.234375 C 17.921875 -26.109375 18.132812 -25.972656 18.4375 -25.828125 C 18.738281 -25.679688 18.972656 -25.566406 19.140625 -25.484375 C 19.316406 -25.410156 19.601562 -25.300781 20 -25.15625 C 20.394531 -25.007812 20.691406 -24.894531 20.890625 -24.8125 C 21.097656 -24.738281 21.4375 -24.628906 21.90625 -24.484375 C 22.375 -24.335938 22.734375 -24.238281 22.984375 -24.1875 C 24.523438 -23.738281 25.867188 -23.238281 27.015625 -22.6875 C 28.160156 -22.144531 29.367188 -21.398438 30.640625 -20.453125 C 31.910156 -19.503906 32.894531 -18.304688 33.59375 -16.859375 C 34.289062 -15.421875 34.640625 -13.78125 34.640625 -11.9375 C 34.640625 -3.226562 28.59375 1.125 16.5 1.125 C 13.757812 1.125 11.15625 0.703125 8.6875 -0.140625 C 6.226562 -0.992188 4.453125 -1.84375 3.359375 -2.6875 L 1.71875 -4.03125 L 7.09375 -13.0625 C 7.488281 -12.71875 8.007812 -12.304688 8.65625 -11.828125 C 9.300781 -11.359375 10.46875 -10.710938 12.15625 -9.890625 C 13.851562 -9.066406 15.320312 -8.65625 16.5625 -8.65625 C 19.300781 -8.65625 20.671875 -9.578125 20.671875 -11.421875 C 20.671875 -12.265625 20.320312 -12.921875 19.625 -13.390625 C 18.925781 -13.867188 17.742188 -14.40625 16.078125 -15 C 14.410156 -15.59375 13.109375 -16.140625 12.171875 -16.640625 C 9.773438 -17.890625 7.878906 -19.296875 6.484375 -20.859375 C 5.097656 -22.429688 4.40625 -24.507812 4.40625 -27.09375 C 4.40625 -30.976562 5.910156 -34 8.921875 -36.15625 C 11.929688 -38.320312 16 -39.40625 21.125 -39.40625 Z M 21.125 -39.40625 "/></g></g></g><g fill="#dfe2e8" fill-opacity="1"><g transform="translate(34.350986, 69.55425)"><g><path d="M 6.71875 -38.296875 L 6.71875 -52.546875 L 19.921875 -52.546875 L 19.921875 -38.296875 L 27.984375 -38.296875 L 27.984375 -28.21875 L 19.921875 -28.21875 L 19.921875 -16.046875 C 19.921875 -12.515625 20.921875 -10.75 22.921875 -10.75 C 23.410156 -10.75 23.925781 -10.847656 24.46875 -11.046875 C 25.019531 -11.242188 25.445312 -11.441406 25.75 -11.640625 L 26.203125 -11.9375 L 29.484375 -1.265625 C 26.648438 0.328125 23.414062 1.125 19.78125 1.125 C 17.289062 1.125 15.148438 0.6875 13.359375 -0.1875 C 11.566406 -1.0625 10.207031 -2.226562 9.28125 -3.6875 C 8.363281 -5.15625 7.707031 -6.695312 7.3125 -8.3125 C 6.914062 -9.9375 6.71875 -11.671875 6.71875 -13.515625 L 6.71875 -28.21875 L 1.1875 -28.21875 L 1.1875 -38.296875 Z M 6.71875 -38.296875 "/></g></g></g><g fill="#dfe2e8" fill-opacity="1"><g transform="translate(61.443704, 69.55425)"><g><path d="M 4.484375 0 L 4.484375 -38.296875 L 17.6875 -38.296875 L 17.6875 -32.765625 L 17.84375 -32.765625 C 17.9375 -32.960938 18.09375 -33.210938 18.3125 -33.515625 C 18.539062 -33.816406 19.03125 -34.335938 19.78125 -35.078125 C 20.53125 -35.828125 21.328125 -36.5 22.171875 -37.09375 C 23.015625 -37.6875 24.109375 -38.21875 25.453125 -38.6875 C 26.796875 -39.164062 28.164062 -39.40625 29.5625 -39.40625 C 31 -39.40625 32.414062 -39.207031 33.8125 -38.8125 C 35.207031 -38.414062 36.226562 -38.019531 36.875 -37.625 L 37.921875 -37.015625 L 32.390625 -25.828125 C 30.753906 -27.222656 28.46875 -27.921875 25.53125 -27.921875 C 23.9375 -27.921875 22.566406 -27.570312 21.421875 -26.875 C 20.273438 -26.175781 19.460938 -25.328125 18.984375 -24.328125 C 18.515625 -23.335938 18.179688 -22.492188 17.984375 -21.796875 C 17.785156 -21.097656 17.6875 -20.550781 17.6875 -20.15625 L 17.6875 0 Z M 4.484375 0 "/></g></g></g><g fill="#dfe2e8" fill-opacity="1"><g transform="translate(96.224013, 69.55425)"><g><path d="M 5.75 -59.640625 C 7.289062 -61.179688 9.128906 -61.953125 11.265625 -61.953125 C 13.410156 -61.953125 15.253906 -61.179688 16.796875 -59.640625 C 18.335938 -58.097656 19.109375 -56.253906 19.109375 -54.109375 C 19.109375 -51.972656 18.335938 -50.132812 16.796875 -48.59375 C 15.253906 -47.050781 13.410156 -46.28125 11.265625 -46.28125 C 9.128906 -46.28125 7.289062 -47.050781 5.75 -48.59375 C 4.207031 -50.132812 3.4375 -51.972656 3.4375 -54.109375 C 3.4375 -56.253906 4.207031 -58.097656 5.75 -59.640625 Z M 4.484375 -38.296875 L 4.484375 0 L 17.6875 0 L 17.6875 -38.296875 Z M 4.484375 -38.296875 "/></g></g></g><g fill="#dfe2e8" fill-opacity="1"><g transform="translate(116.375524, 69.55425)"><g><path d="M 7.09375 -4.734375 C 3.507812 -8.640625 1.71875 -13.425781 1.71875 -19.09375 C 1.71875 -24.769531 3.507812 -29.570312 7.09375 -33.5 C 10.675781 -37.4375 15.226562 -39.40625 20.75 -39.40625 C 25.820312 -39.40625 30.003906 -37.816406 33.296875 -34.640625 L 33.296875 -64.1875 L 46.5 -64.1875 L 46.5 0 L 33.4375 0 L 33.4375 -4.328125 L 33.296875 -4.328125 C 30.003906 -0.691406 25.820312 1.125 20.75 1.125 C 15.226562 1.125 10.675781 -0.828125 7.09375 -4.734375 Z M 18.328125 -25.59375 C 16.609375 -23.90625 15.75 -21.742188 15.75 -19.109375 C 15.75 -16.472656 16.566406 -14.320312 18.203125 -12.65625 C 19.847656 -10.988281 22.015625 -10.15625 24.703125 -10.15625 C 27.296875 -10.15625 29.425781 -11 31.09375 -12.6875 C 32.757812 -14.382812 33.59375 -16.523438 33.59375 -19.109375 C 33.59375 -21.742188 32.734375 -23.90625 31.015625 -25.59375 C 29.296875 -27.289062 27.191406 -28.140625 24.703125 -28.140625 C 22.171875 -28.140625 20.046875 -27.289062 18.328125 -25.59375 Z M 18.328125 -25.59375 "/></g></g></g><g fill="#dfe2e8" fill-opacity="1"><g transform="translate(164.963632, 69.55425)"><g><path d="M 43.21875 -17.3125 L 15.453125 -17.3125 C 15.453125 -14.625 16.320312 -12.632812 18.0625 -11.34375 C 19.800781 -10.050781 21.691406 -9.40625 23.734375 -9.40625 C 25.867188 -9.40625 27.554688 -9.691406 28.796875 -10.265625 C 30.046875 -10.835938 31.46875 -11.96875 33.0625 -13.65625 L 42.625 -8.875 C 38.644531 -2.207031 32.023438 1.125 22.765625 1.125 C 16.992188 1.125 12.039062 -0.851562 7.90625 -4.8125 C 3.78125 -8.769531 1.71875 -13.535156 1.71875 -19.109375 C 1.71875 -24.679688 3.78125 -29.457031 7.90625 -33.4375 C 12.039062 -37.414062 16.992188 -39.40625 22.765625 -39.40625 C 28.835938 -39.40625 33.773438 -37.648438 37.578125 -34.140625 C 41.390625 -30.640625 43.296875 -25.628906 43.296875 -19.109375 C 43.296875 -18.210938 43.269531 -17.613281 43.21875 -17.3125 Z M 15.828125 -24.625 L 30.375 -24.625 C 30.082031 -26.613281 29.300781 -28.144531 28.03125 -29.21875 C 26.757812 -30.289062 25.128906 -30.828125 23.140625 -30.828125 C 20.953125 -30.828125 19.207031 -30.253906 17.90625 -29.109375 C 16.613281 -27.960938 15.921875 -26.46875 15.828125 -24.625 Z M 15.828125 -24.625 "/></g></g></g></svg>